# xmcd
#
# Track frame offsets: 
#        150
#        10940
#        22523
#        33485
#        43849
#        55324
#        66165
#        77710
#        88549
#        103149
#        114711
#        123308
#        134755
#
# Disc length: 2051 seconds
#
# Revision: 0
# Processed by: cddbd v1.5.2PL0 Copyright (c) Steve Scherf et al.
# Submitted via: ExactAudioCopy v0.99pb3
#
DISCID=ac08010d
DTITLE=5 On a String - Prime Nmber
DYEAR=1900
DGENRE=Bluegrass
TTITLE0=These Ol' Blues
TTITLE1=Woman's Gone
TTITLE2=Pine Cone Reel
TTITLE3=His Voice
TTITLE4=Over Under Around
TTITLE5=My Home Is On Blue Mountain
TTITLE6=Sweet Memories
TTITLE7=Lonesome Wind Blues
TTITLE8=Siler Wings
TTITLE9=Armadillo Breakdown
TTITLE10=You Can't Believe Everthing You Hear
TTITLE11=Booleg John
TTITLE12=Jacob's Ladder
EXTD=
EXTT0=
EXTT1=
EXTT2=
EXTT3=
EXTT4=
EXTT5=
EXTT6=
EXTT7=
EXTT8=
EXTT9=
EXTT10=
EXTT11=
EXTT12=
PLAYORDER=
